<svg id="Ebene_1" data-name="Ebene 1" xmlns="http://www.w3.org/2000/svg" viewBox="0 0 500.61 472.66"><defs><style>.cls-1{fill:#1d1d1b;}</style></defs><title>st_logo_512x512_2019</title><polygon class="cls-1" points="395.55 128.8 276.99 128.87 276.99 311.99 248.93 348.56 220.31 311.26 220.31 128.9 105.89 128.97 149.32 72.45 348.51 73.15 395.55 128.8"/><polygon class="cls-1" points="249.34 472.39 500.61 144.93 293.72 144.93 293.72 201.61 389 201.61 248.87 384.31 128.16 226.99 60.61 226.99 249.12 472.66 249.34 472.39"/><polygon class="cls-1" points="387.22 0 113.46 0 0 147.86 42.04 202.79 203.45 202.79 203.45 146.11 66.1 146.11 66.1 146.11 134.72 56.67 361.19 56.67 422.76 128.78 497.95 128.78 387.22 0"/></svg>